<?xml version="1.0" encoding="UTF-8" standalone="no"?>
<!DOCTYPE svg PUBLIC "-//W3C//DTD SVG 1.1//EN" "http://www.w3.org/Graphics/SVG/1.1/DTD/svg11.dtd">
<svg xmlns="http://www.w3.org/2000/svg" version="1.1" viewBox="0.00 0.00 200.00 300.00">
<g stroke-width="2.00" fill="none" stroke-linecap="butt">
<path stroke="#030914" vector-effect="non-scaling-stroke" d="
  M 200.00 79.75
  Q 199.69 79.65 199.63 80.04
  Q 199.57 80.48 199.13 80.41
  Q 198.91 80.37 198.74 80.22
  Q 198.39 79.91 197.93 79.92
  C 183.23 80.03 168.07 79.71 153.51 79.88
  Q 127.86 80.18 100.77 79.86
  Q 88.39 79.72 76.49 79.86
  C 75.96 79.87 75.72 80.12 75.16 80.12
  Q 59.10 80.19 41.56 80.09
  Q 40.26 80.08 38.98 80.15
  C 36.82 80.27 34.71 79.87 32.58 79.92
  Q 18.79 80.22 5.00 79.67
  Q 3.97 79.63 2.56 79.98
  Q 0.57 80.48 0.00 79.73"
/>
<path stroke="#04111d" vector-effect="non-scaling-stroke" d="
  M 200.00 128.18
  L 144.84 128.35
  Q 144.37 128.35 144.19 127.91
  Q 144.08 127.65 143.80 127.78
  Q 143.13 128.08 143.05 127.35
  Q 142.97 126.69 142.60 126.11
  Q 142.25 125.58 141.83 126.06
  Q 141.51 126.44 141.59 127.04
  Q 141.67 127.62 141.35 127.13
  Q 141.27 127.00 141.15 126.88
  Q 140.88 126.62 140.99 126.26
  Q 141.17 125.64 140.88 125.11
  Q 140.60 124.59 140.17 125.00
  Q 138.44 126.64 138.11 125.26"
/>
<path stroke="#7a4046" vector-effect="non-scaling-stroke" d="
  M 138.11 125.26
  Q 138.18 125.10 138.25 124.94"
/>
<path stroke="#7b513e" vector-effect="non-scaling-stroke" d="
  M 138.25 124.94
  L 141.17 119.08"
/>
<path stroke="#7d632f" vector-effect="non-scaling-stroke" d="
  M 141.17 119.08
  Q 143.26 112.25 143.41 107.03
  Q 143.59 100.69 143.90 94.36
  Q 143.93 93.86 143.42 93.86
  Q 135.59 94.00 127.89 94.65
  Q 119.32 95.36 111.98 100.09"
/>
<path stroke="#7b513e" vector-effect="non-scaling-stroke" d="
  M 111.98 100.09
  Q 111.81 100.47 110.98 101.00"
/>
<path stroke="#7a4046" vector-effect="non-scaling-stroke" d="
  M 110.98 101.00
  L 106.41 105.69"
/>
<path stroke="#792b4a" vector-effect="non-scaling-stroke" d="
  M 106.41 105.69
  C 100.58 114.84 100.87 123.17 101.11 134.20"
/>
<path stroke="#04111d" vector-effect="non-scaling-stroke" d="
  M 101.11 134.20
  Q 100.96 134.24 100.91 134.40
  Q 100.79 134.75 100.51 134.54
  Q 100.46 134.51 100.41 134.49
  Q 100.15 134.43 100.13 134.16
  Q 100.12 133.98 100.12 133.80
  Q 100.12 133.50 99.90 133.31
  L 97.72 131.37
  Q 97.32 131.02 96.79 131.05
  Q 93.76 131.21 90.87 130.20
  A 1.12 1.09 42.1 0 0 90.07 130.23
  Q 89.52 130.47 89.07 130.08
  A 1.03 1.01 -24.2 0 0 88.36 129.82
  Q 87.24 129.84 86.16 130.00
  Q 85.52 130.10 84.83 129.94
  Q 81.93 129.26 78.08 129.08
  Q 77.04 129.03 76.08 129.32
  Q 75.13 129.60 74.11 129.59
  Q 71.00 129.56 67.87 129.61
  Q 67.38 129.62 66.92 129.43
  C 65.34 128.77 64.13 129.91 62.46 128.96
  Q 62.01 128.71 61.54 128.92
  Q 60.18 129.53 58.71 129.06
  Q 58.24 128.91 57.76 129.03
  Q 56.71 129.29 55.63 129.29
  Q 54.75 129.29 53.94 129.09
  Q 53.25 128.92 52.58 129.19
  Q 52.11 129.38 51.60 129.34
  Q 48.01 129.02 44.44 129.27
  Q 36.68 129.82 29.26 128.44
  Q 27.02 128.02 24.73 128.20
  Q 22.81 128.34 20.83 127.91
  Q 20.30 127.79 19.78 127.96
  Q 16.88 128.91 14.32 128.38
  C 12.47 128.00 10.80 128.60 8.92 128.33
  C 6.91 128.05 4.99 128.21 3.01 127.97
  A 2.74 2.74 0.0 0 1 0.63 125.70
  L 0.00 121.85"
/>
<path stroke="#f5a754" vector-effect="non-scaling-stroke" d="
  M 141.17 119.08
  Q 141.42 118.54 141.15 117.71
  A 0.08 0.07 -34.7 0 0 141.02 117.69
  Q 140.86 117.91 140.60 118.03
  A 0.29 0.29 0.0 0 1 140.24 117.93
  Q 139.40 116.77 139.80 115.60
  C 140.35 113.97 140.18 111.72 140.08 110.04
  Q 139.95 108.03 138.08 106.84
  Q 137.68 106.58 137.51 106.13
  Q 136.19 102.71 132.99 100.49
  Q 131.95 99.76 130.78 99.39
  Q 129.49 98.98 128.19 98.40
  Q 126.40 97.60 124.75 97.93
  C 122.81 98.32 120.92 99.57 118.96 99.76
  Q 117.81 99.88 116.65 100.00
  Q 116.11 100.06 114.40 100.56
  Q 112.79 101.04 111.98 100.09"
/>
<path stroke="#f2846b" vector-effect="non-scaling-stroke" d="
  M 138.25 124.94
  Q 137.23 125.23 136.60 126.11
  Q 136.32 126.50 135.81 126.50
  Q 134.81 126.51 135.18 125.58
  Q 135.47 124.88 134.86 124.70
  Q 134.40 124.57 134.32 124.10
  Q 134.10 122.73 133.99 121.33
  Q 133.89 119.98 133.40 118.71
  Q 131.67 114.15 129.70 110.92
  Q 128.24 108.53 125.08 107.24
  Q 123.07 106.42 121.99 104.73
  Q 121.70 104.27 121.15 104.23
  L 113.17 103.63
  A 0.39 0.38 -75.9 0 0 112.79 103.86
  Q 112.73 103.99 112.61 104.07
  Q 112.27 104.29 112.32 103.89
  Q 112.38 103.44 111.90 103.19
  A 0.63 0.61 -48.7 0 0 111.26 103.24
  L 110.57 103.73
  Q 110.31 103.92 110.01 103.80
  L 109.25 103.49
  Q 108.99 103.38 109.21 103.21
  Q 110.72 102.06 110.98 101.00"
/>
<path stroke="#7b444a" vector-effect="non-scaling-stroke" d="
  M 138.11 125.26
  L 135.55 128.34"
/>
<path stroke="#ef5e77" vector-effect="non-scaling-stroke" d="
  M 135.55 128.34
  Q 132.07 130.89 128.87 131.42
  A 0.27 0.27 0.0 0 1 128.57 131.08
  Q 128.63 130.88 128.51 130.75
  Q 128.27 130.49 127.94 130.36
  Q 126.43 129.81 126.67 128.16
  Q 126.72 127.80 126.41 127.60
  Q 124.85 126.58 125.06 124.71
  Q 125.12 124.23 124.95 123.78
  Q 123.81 120.65 122.35 117.93
  Q 121.66 116.65 120.21 116.17
  Q 119.90 116.07 119.91 115.76
  Q 119.91 115.32 119.51 115.16
  Q 117.97 114.57 116.57 113.62
  Q 115.20 112.69 113.73 112.41
  Q 110.96 111.88 108.33 111.26
  A 1.97 1.97 0.0 0 1 106.82 109.55
  L 106.41 105.69"
/>
<path stroke="#7a2f4e" vector-effect="non-scaling-stroke" d="
  M 135.55 128.34
  Q 129.81 134.45 120.50 136.04
  Q 111.32 137.60 102.06 136.21
  Q 101.54 136.13 101.36 135.64
  Q 101.13 135.03 101.11 134.20"
/>
<path stroke="#071c28" vector-effect="non-scaling-stroke" d="
  M 200.00 177.30
  Q 199.48 176.03 198.98 175.86"
/>
<path stroke="#542459" vector-effect="non-scaling-stroke" d="
  M 198.98 175.86
  L 198.97 151.70"
/>
<path stroke="#3a2142" vector-effect="non-scaling-stroke" d="
  M 198.97 151.70
  C 199.40 149.72 198.22 148.41 196.36 148.43
  Q 177.58 148.53 159.47 148.33
  Q 157.49 148.31 155.37 148.63
  Q 154.11 148.82 154.11 150.10
  L 154.18 170.19"
/>
<path stroke="#071c28" vector-effect="non-scaling-stroke" d="
  M 154.18 170.19
  Q 153.74 171.02 153.90 172.11
  Q 153.90 172.13 153.90 172.13
  Q 153.85 172.17 153.81 172.13
  Q 153.78 172.08 153.81 172.04
  Q 153.88 171.94 153.90 171.80
  Q 153.97 171.30 153.56 171.01
  Q 151.99 169.88 150.14 169.49
  Q 149.66 169.39 149.52 168.93
  Q 148.58 166.04 145.82 167.20
  Q 145.55 167.32 145.56 167.02
  Q 145.58 166.70 145.25 166.65
  Q 144.62 166.56 144.44 166.79"
/>
<path stroke="#818a90" vector-effect="non-scaling-stroke" d="
  M 144.44 166.79
  C 142.94 161.45 137.51 160.51 133.06 158.57
  Q 130.41 157.41 130.84 154.99
  C 131.59 150.89 138.04 152.36 140.67 153.81
  Q 142.06 154.58 142.88 153.22
  L 143.36 152.44
  Q 144.38 150.78 142.61 149.95
  C 137.22 147.39 129.65 147.02 126.43 152.76"
/>
<path stroke="#071c28" vector-effect="non-scaling-stroke" d="
  M 126.43 152.76
  L 124.73 153.31
  Q 124.28 153.46 124.13 153.01
  L 123.29 150.54"
/>
<path stroke="#818a90" vector-effect="non-scaling-stroke" d="
  M 123.29 150.54
  Q 123.39 149.74 123.05 149.10
  Q 122.79 148.62 122.25 148.57
  C 118.42 148.24 115.89 150.76 114.08 153.88
  Q 113.61 154.70 113.52 153.76
  Q 113.36 152.24 113.58 150.53
  Q 113.81 148.72 111.99 148.73
  L 110.28 148.75
  Q 108.68 148.76 108.68 150.36
  L 108.72 169.06"
/>
<path stroke="#071c28" vector-effect="non-scaling-stroke" d="
  M 108.72 169.06
  Q 108.42 168.93 108.39 168.44
  Q 108.34 167.73 107.73 168.09
  Q 107.51 168.22 107.47 168.48
  A 0.05 0.05 0.0 0 1 107.40 168.52
  Q 106.79 168.25 106.51 167.74
  Q 106.24 167.25 105.74 166.96
  Q 105.44 166.79 105.20 167.09
  Q 104.87 167.52 104.33 167.42
  L 103.12 167.20
  Q 103.01 167.18 102.98 167.28
  Q 102.93 167.43 103.03 167.52
  Q 103.25 167.69 102.97 167.64
  Q 102.77 167.61 102.57 167.64
  Q 102.43 167.65 102.32 167.73
  Q 102.08 167.91 102.15 168.08
  Q 102.28 168.42 101.94 168.28
  Q 101.85 168.24 101.74 168.21"
/>
<path stroke="#818a90" vector-effect="non-scaling-stroke" d="
  M 101.74 168.21
  C 105.30 159.88 101.69 150.87 92.60 148.74
  C 82.41 146.34 73.79 153.31 74.79 163.93"
/>
<path stroke="#071c28" vector-effect="non-scaling-stroke" d="
  M 74.79 163.93
  Q 74.12 163.52 74.11 164.59
  Q 74.10 165.15 73.56 165.02
  Q 72.25 164.71 72.65 163.31
  Q 72.81 162.71 72.24 162.47
  Q 71.48 162.16 70.32 162.81
  A 1.31 1.30 -17.0 0 1 68.38 161.78
  L 68.05 157.78"
/>
<path stroke="#818a90" vector-effect="non-scaling-stroke" d="
  M 68.05 157.78
  L 67.90 139.67
  A 1.08 1.08 0.0 0 0 67.03 138.62
  Q 63.68 137.97 62.90 139.48"
/>
<path stroke="#071c28" vector-effect="non-scaling-stroke" d="
  M 62.90 139.48
  Q 62.84 149.18 62.88 158.76
  Q 62.89 160.24 61.73 161.67
  Q 61.43 162.03 61.16 161.65
  Q 60.93 161.32 60.53 161.36
  Q 60.15 161.40 59.95 161.71
  Q 59.72 162.05 59.33 161.98
  Q 57.57 161.67 57.28 159.76"
/>
<path stroke="#818a90" vector-effect="non-scaling-stroke" d="
  M 57.28 159.76
  C 53.80 140.89 23.28 146.09 30.07 167.87"
/>
<path stroke="#071c28" vector-effect="non-scaling-stroke" d="
  M 30.07 167.87
  Q 30.37 169.08 28.13 167.49
  Q 27.53 167.06 27.71 167.77
  Q 27.77 167.99 27.65 168.18
  Q 27.45 168.51 27.05 168.67
  Q 26.14 169.05 24.92 168.93"
/>
<path stroke="#818a90" vector-effect="non-scaling-stroke" d="
  M 24.92 168.93
  L 24.24 168.63
  Q 23.68 168.38 23.18 168.74
  C 15.99 174.03 6.35 170.68 6.82 161.14
  C 7.08 155.81 11.50 152.17 16.77 152.53
  C 18.71 152.67 20.37 153.64 22.05 154.50
  Q 23.64 155.33 24.44 153.72
  L 24.77 153.05
  Q 25.57 151.44 24.02 150.54
  Q 17.65 146.81 10.99 148.88
  C 2.53 151.51 -0.42 160.82 3.07 168.51"
/>
<path stroke="#071c28" vector-effect="non-scaling-stroke" d="
  M 3.07 168.51
  Q 2.74 169.30 2.09 169.80
  Q 1.71 170.10 1.50 170.53
  L 0.00 173.53"
/>
<path stroke="#839197" vector-effect="non-scaling-stroke" d="
  M 68.05 157.78
  L 68.03 168.36
  A 2.21 2.21 0.0 0 0 69.51 170.46
  L 70.95 170.95
  Q 71.57 171.16 71.68 171.80
  Q 71.92 173.23 71.55 174.62
  Q 71.41 175.15 70.86 175.21
  C 63.72 175.98 63.00 171.62 62.97 165.69
  Q 62.90 152.63 62.90 139.48"
/>
<path stroke="#839197" vector-effect="non-scaling-stroke" d="
  M 74.79 163.93
  C 77.49 177.89 94.66 179.75 101.74 168.21"
/>
<path stroke="#839197" vector-effect="non-scaling-stroke" d="
  M 108.72 169.06
  L 108.73 173.81
  Q 108.73 175.10 110.01 175.08
  L 112.46 175.06
  Q 113.76 175.04 113.75 173.74
  C 113.68 167.64 112.00 153.39 122.02 153.35
  A 1.04 1.04 0.0 0 0 122.87 152.91
  Q 123.57 151.93 123.29 150.54"
/>
<path stroke="#839197" vector-effect="non-scaling-stroke" d="
  M 126.43 152.76
  C 122.67 164.97 139.65 162.25 139.55 168.08
  C 139.47 172.27 133.80 171.95 131.19 170.76
  Q 129.53 170.00 128.05 169.27
  Q 126.94 168.73 126.22 169.74
  L 125.57 170.66
  Q 124.64 171.97 125.96 172.89
  C 132.38 177.37 144.60 177.32 144.44 166.79"
/>
<path stroke="#3c2849" vector-effect="non-scaling-stroke" d="
  M 154.18 170.19
  L 154.39 173.62
  A 2.26 2.25 88.5 0 0 156.63 175.75
  L 195.69 175.86"
/>
<path stroke="#562b60" vector-effect="non-scaling-stroke" d="
  M 195.69 175.86
  Q 197.13 175.43 198.98 175.86"
/>
<path stroke="#0a2934" vector-effect="non-scaling-stroke" d="
  M 200.00 193.13
  Q 199.62 192.77 199.60 192.12
  Q 199.59 191.63 199.15 191.85
  Q 198.79 192.05 198.36 192.04
  Q 194.48 191.97 190.87 192.18
  Q 185.57 192.50 178.93 191.60
  Q 178.48 191.54 178.30 191.12
  Q 177.82 189.97 176.55 190.38
  Q 175.58 190.70 174.68 190.58
  Q 174.29 190.52 174.12 190.89
  Q 174.04 191.05 173.89 191.16
  Q 173.54 191.41 173.12 191.47
  Q 168.73 192.13 164.94 191.50
  Q 160.02 190.69 156.16 191.31
  Q 152.79 191.85 148.98 192.66
  Q 146.62 193.16 145.20 191.38
  Q 145.12 191.27 145.15 191.15
  Q 145.16 191.09 145.21 191.07
  Q 145.62 190.81 145.14 190.90
  Q 144.93 190.93 144.65 191.04"
/>
<path stroke="#7d4b51" vector-effect="non-scaling-stroke" d="
  M 144.65 191.04
  L 144.46 185.30
  Q 144.39 183.13 142.22 183.06
  L 136.15 182.84
  Q 134.37 182.78 134.34 184.56
  L 134.21 191.76"
/>
<path stroke="#0a2934" vector-effect="non-scaling-stroke" d="
  M 134.21 191.76
  Q 133.71 191.16 132.47 190.62"
/>
<path stroke="#839197" vector-effect="non-scaling-stroke" d="
  M 132.47 190.62
  L 132.39 186.01
  Q 132.38 185.50 131.98 185.18
  Q 131.07 184.46 130.10 185.23
  Q 129.05 186.08 128.81 187.75
  Q 128.77 188.02 128.56 188.17
  Q 128.37 188.31 128.19 188.26
  Q 127.62 188.11 127.59 187.52
  Q 127.52 186.34 126.95 185.82
  Q 124.20 183.32 124.05 187.27
  Q 124.01 188.24 124.06 190.53"
/>
<path stroke="#0a2934" vector-effect="non-scaling-stroke" d="
  M 124.06 190.53
  Q 124.02 190.92 123.59 191.00
  Q 123.09 191.09 122.89 190.62
  L 122.64 190.03"
/>
<path stroke="#839197" vector-effect="non-scaling-stroke" d="
  M 122.64 190.03
  C 124.81 184.77 118.07 182.86 116.84 187.34
  Q 116.27 189.43 118.33 190.86"
/>
<path stroke="#0a2934" vector-effect="non-scaling-stroke" d="
  M 118.33 190.86
  Q 118.55 192.32 115.67 191.10"
/>
<path stroke="#839197" vector-effect="non-scaling-stroke" d="
  M 115.67 191.10
  Q 116.15 190.76 115.94 190.13
  A 0.68 0.68 0.0 0 0 115.13 189.69
  Q 113.19 190.16 112.58 188.57
  C 112.10 187.31 113.46 185.87 114.81 186.50
  A 0.71 0.71 0.0 0 0 115.77 186.13
  L 115.93 185.73
  Q 116.18 185.11 115.52 185.03
  Q 113.96 184.85 112.34 185.24
  Q 111.75 185.37 111.42 185.88
  Q 109.77 188.37 112.06 190.89"
/>
<path stroke="#0a2934" vector-effect="non-scaling-stroke" d="
  M 112.06 190.89
  Q 111.31 192.89 107.65 192.44
  Q 107.18 192.39 106.81 192.69
  Q 106.15 193.23 105.20 192.85
  Q 105.11 192.81 105.14 192.70
  Q 105.18 192.57 105.16 192.45
  Q 105.14 192.39 105.08 192.41
  Q 104.27 192.71 103.37 192.60
  Q 103.20 192.57 103.34 192.68
  Q 103.46 192.78 103.59 192.75
  Q 103.81 192.69 104.03 192.75
  Q 104.32 192.83 104.03 192.89
  Q 102.05 193.35 100.03 192.93
  Q 99.51 192.82 99.01 192.98
  Q 97.58 193.43 96.67 192.32
  Q 96.38 191.96 96.10 192.32
  Q 95.47 193.13 94.43 192.87
  Q 93.80 192.72 93.53 192.16
  Q 93.39 191.85 93.09 191.67
  Q 93.02 191.62 92.94 191.66
  Q 92.53 191.92 92.14 191.49
  Q 91.23 190.46 90.02 191.20
  Q 89.65 191.43 89.24 191.31
  Q 88.98 191.23 88.81 191.01
  Q 88.52 190.63 88.16 190.94
  Q 86.00 192.81 82.82 191.92
  Q 82.46 191.82 82.24 192.11
  Q 82.13 192.24 81.96 192.28
  Q 81.53 192.39 81.06 192.24
  Q 80.10 191.95 78.98 191.91
  Q 76.02 191.82 73.04 191.61
  Q 71.54 191.50 70.03 191.62
  Q 68.50 191.74 66.95 191.54
  Q 64.69 191.25 62.14 191.43
  Q 51.75 192.16 42.24 191.01
  Q 40.64 190.82 38.92 191.29
  Q 37.30 191.73 35.52 191.63
  Q 31.53 191.41 27.44 191.52
  Q 26.73 191.54 26.23 191.05
  Q 25.67 190.50 25.00 190.92
  Q 24.48 191.25 23.88 191.13
  Q 22.90 190.95 22.08 191.25
  Q 21.22 191.56 20.32 191.62
  Q 11.42 192.22 2.50 192.29
  Q 0.69 192.30 0.00 193.88"
/>
<path stroke="#839197" vector-effect="non-scaling-stroke" d="
  M 3.07 168.51
  C 7.57 176.43 17.41 177.81 24.68 172.92
  Q 26.74 171.53 24.92 168.93"
/>
<path stroke="#839197" vector-effect="non-scaling-stroke" d="
  M 30.07 167.87
  Q 35.49 176.70 44.49 175.61
  C 53.06 174.57 58.05 168.49 57.28 159.76"
/>
<path stroke="#839197" vector-effect="non-scaling-stroke" d="
  M 102.4160 185.6659
  A 0.74 0.74 0.0 0 0 101.6812 184.9207
  L 101.5012 184.9194
  A 0.74 0.74 0.0 0 0 100.7560 185.6543
  L 100.7240 190.2341
  A 0.74 0.74 0.0 0 0 101.4588 190.9793
  L 101.6388 190.9806
  A 0.74 0.74 0.0 0 0 102.3840 190.2457
  L 102.4160 185.6659"
/>
<path stroke="#839197" vector-effect="non-scaling-stroke" d="
  M 96.17 188.26
  L 95.14 185.47
  Q 94.96 184.97 94.43 184.92
  L 94.07 184.88
  Q 93.06 184.76 93.44 185.71
  L 95.26 190.27
  A 1.29 1.29 0.0 0 0 97.64 190.30
  L 99.56 185.88
  Q 99.90 185.10 99.06 185.01
  Q 98.82 184.98 98.59 185.03
  Q 97.91 185.16 97.70 185.82
  L 96.91 188.25
  A 0.39 0.39 0.0 0 1 96.17 188.26"
/>
<path stroke="#839197" vector-effect="non-scaling-stroke" d="
  M 107.11 186.25
  Q 108.11 186.52 107.15 186.91
  Q 106.18 187.30 105.17 187.38
  C 103.76 187.50 103.51 188.95 103.76 190.09
  Q 103.88 190.67 104.45 190.82
  Q 105.98 191.23 107.65 191.08
  C 110.20 190.85 110.21 187.61 109.31 185.92
  C 108.54 184.48 105.86 184.98 104.50 185.02
  Q 103.70 185.05 104.12 185.73
  L 104.33 186.08
  A 0.51 0.50 66.2 0 0 104.89 186.30
  Q 106.08 185.97 107.11 186.25"
/>
<path stroke="#818a90" vector-effect="non-scaling-stroke" d="
  M 43.2260 171.3498
  A 9.46 9.10 89.6 0 0 52.2598 161.8265
  A 9.46 9.10 89.6 0 0 43.0940 152.4302
  A 9.46 9.10 89.6 0 0 34.0602 161.9535
  A 9.46 9.10 89.6 0 0 43.2260 171.3498"
/>
<path stroke="#818a90" vector-effect="non-scaling-stroke" d="
  M 89.0153 171.3393
  A 9.44 9.10 89.3 0 0 97.9993 161.7888
  A 9.44 9.10 89.3 0 0 88.7847 152.4607
  A 9.44 9.10 89.3 0 0 79.8007 162.0112
  A 9.44 9.10 89.3 0 0 89.0153 171.3393"
/>
<path stroke="#893079" vector-effect="non-scaling-stroke" d="
  M 198.97 151.70
  L 198.71 150.54
  Q 198.49 149.52 197.44 149.48
  Q 192.29 149.30 188.31 148.79
  C 186.74 148.60 185.31 148.98 183.74 148.84
  Q 183.24 148.79 182.92 149.18
  Q 182.64 149.52 182.16 149.44
  Q 181.51 149.34 181.88 149.88
  Q 182.20 150.37 182.76 150.35
  Q 183.27 150.33 183.72 150.55
  Q 185.58 151.48 186.00 152.77"
/>
<path stroke="#b695b0" vector-effect="non-scaling-stroke" d="
  M 186.00 152.77
  L 179.39 152.77
  A 0.98 0.98 0.0 0 0 178.41 153.74
  L 178.30 171.90
  A 0.57 0.57 0.0 0 0 178.86 172.47
  L 182.45 172.50"
/>
<path stroke="#893079" vector-effect="non-scaling-stroke" d="
  M 182.45 172.50
  Q 182.22 173.33 183.03 173.61
  Q 183.47 173.77 183.69 174.18
  Q 184.05 174.85 185.01 174.86
  Q 190.01 174.88 195.04 174.87
  Q 195.49 174.87 195.59 175.14
  Q 195.69 175.39 195.69 175.86"
/>
<path stroke="#b695b0" vector-effect="non-scaling-stroke" d="
  M 171.44 160.64
  A 0.76 0.76 0.0 0 1 170.68 161.40
  L 163.05 161.39
  A 0.76 0.76 0.0 0 1 162.29 160.61
  L 162.46 153.64
  A 0.76 0.76 0.0 0 0 161.73 152.87
  L 159.54 152.80
  A 0.76 0.76 0.0 0 0 158.75 153.56
  L 158.83 171.71
  A 0.76 0.76 0.0 0 0 159.59 172.47
  L 161.65 172.47
  A 0.76 0.76 0.0 0 0 162.41 171.71
  L 162.37 164.94
  A 0.76 0.76 0.0 0 1 163.14 164.18
  L 170.58 164.27
  A 0.76 0.76 0.0 0 1 171.33 165.03
  L 171.29 171.75
  A 0.76 0.76 0.0 0 0 172.07 172.51
  L 174.11 172.47
  A 0.76 0.76 0.0 0 0 174.86 171.70
  L 174.74 153.52
  A 0.76 0.76 0.0 0 0 174.03 152.77
  L 172.27 152.66
  A 0.76 0.76 0.0 0 0 171.47 153.42
  L 171.44 160.64"
/>
<path stroke="#d099c7" vector-effect="non-scaling-stroke" d="
  M 182.45 172.50
  C 189.65 172.93 195.12 170.15 194.90 162.15
  Q 194.67 153.97 186.00 152.77"
/>
<path stroke="#d099c7" vector-effect="non-scaling-stroke" d="
  M 181.75 156.42
  L 181.75 168.84
  A 0.67 0.67 0.0 0 0 182.42 169.51
  L 184.95 169.51
  A 6.42 6.17 -0.0 0 0 191.37 163.34
  L 191.37 161.92
  A 6.42 6.17 0.0 0 0 184.95 155.75
  L 182.42 155.75
  A 0.67 0.67 0.0 0 0 181.75 156.42"
/>
<path stroke="#7e5156" vector-effect="non-scaling-stroke" d="
  M 144.65 191.04
  Q 144.76 191.73 144.47 192.31
  A 0.86 0.86 0.0 0 1 143.74 192.78
  Q 139.56 192.96 135.05 192.91
  Q 134.66 192.90 134.43 192.60
  Q 134.22 192.30 134.21 191.76"
/>
<path stroke="#f7b9b9" vector-effect="non-scaling-stroke" d="
  M 137.68 185.01
  L 136.33 185.11
  A 0.27 0.27 0.0 0 0 136.08 185.40
  L 136.09 185.51
  A 5.46 0.47 85.8 0 0 136.96 190.92
  L 137.91 190.85
  A 5.46 0.47 85.8 0 0 137.98 185.37
  L 137.97 185.26
  A 0.27 0.27 0.0 0 0 137.68 185.01"
/>
<path stroke="#f7b9b9" vector-effect="non-scaling-stroke" d="
  M 142.3917 186.2675
  A 1.28 1.28 0.0 0 0 141.0465 185.0563
  L 139.9879 185.1117
  A 1.28 1.28 0.0 0 0 138.7766 186.4570
  L 138.9483 189.7325
  A 1.28 1.28 0.0 0 0 140.2935 190.9437
  L 141.3521 190.8883
  A 1.28 1.28 0.0 0 0 142.5634 189.5430
  L 142.3917 186.2675"
/>
<path stroke="#84969b" vector-effect="non-scaling-stroke" d="
  M 107.6996 189.2738
  A 0.94 0.67 -1.6 0 0 106.7413 188.6303
  A 0.94 0.67 -1.6 0 0 105.8204 189.3262
  A 0.94 0.67 -1.6 0 0 106.7787 189.9697
  A 0.94 0.67 -1.6 0 0 107.6996 189.2738"
/>
<path stroke="#84969b" vector-effect="non-scaling-stroke" d="
  M 115.67 191.10
  L 112.06 190.89"
/>
<path stroke="#84969b" vector-effect="non-scaling-stroke" d="
  M 122.64 190.03
  Q 120.91 191.43 118.33 190.86"
/>
<path stroke="#818a90" vector-effect="non-scaling-stroke" d="
  M 119.8335 189.7579
  A 1.77 1.45 92.8 0 0 121.3683 188.0608
  A 1.77 1.45 92.8 0 0 120.0065 186.2221
  A 1.77 1.45 92.8 0 0 118.4717 187.9192
  A 1.77 1.45 92.8 0 0 119.8335 189.7579"
/>
<path stroke="#84969b" vector-effect="non-scaling-stroke" d="
  M 132.47 190.62
  Q 131.82 191.21 131.24 190.97
  Q 130.66 190.73 130.79 190.11
  Q 130.95 189.39 130.69 188.72
  Q 130.29 187.68 129.90 188.73
  L 129.33 190.25
  Q 129.12 190.81 128.52 190.89
  Q 126.74 191.13 126.49 188.66
  Q 126.39 187.65 125.87 188.52
  Q 125.49 189.17 125.67 190.00
  A 0.89 0.87 -87.9 0 1 124.57 191.05
  Q 124.43 191.01 124.06 190.53"
/>
<path stroke="#0d333d" vector-effect="non-scaling-stroke" d="
  M 200.00 216.36
  Q 189.50 216.16 178.98 215.67
  Q 167.26 215.12 159.01 215.06
  Q 149.58 214.99 140.16 214.93
  Q 130.24 214.86 121.35 215.34
  Q 109.10 215.99 99.78 215.70
  Q 92.86 215.49 85.59 215.39
  Q 78.72 215.30 71.40 215.06
  Q 53.55 214.47 35.31 214.80
  Q 30.52 214.88 25.74 215.27
  Q 21.25 215.63 16.15 215.39
  A 2.29 2.26 -55.3 0 0 15.15 215.58
  Q 14.23 215.97 13.31 215.75
  Q 12.85 215.64 12.39 215.72
  Q 6.09 216.85 0.00 215.91"
/>
<path stroke="#0f3c46" vector-effect="non-scaling-stroke" d="
  M 200.00 233.37
  Q 199.51 233.21 199.33 232.72
  Q 199.12 232.16 198.52 232.15
  L 149.27 232.07
  Q 148.70 232.07 148.13 232.09
  Q 144.11 232.26 140.51 232.03
  Q 137.79 231.85 134.63 232.27
  Q 131.83 232.63 128.73 232.53
  Q 121.43 232.28 114.46 232.35
  Q 111.35 232.38 106.14 232.25
  Q 101.96 232.15 97.81 232.27
  Q 95.85 232.33 93.46 232.17
  Q 91.27 232.03 89.10 232.06
  Q 85.78 232.11 82.54 232.04
  Q 72.30 231.82 62.23 232.00
  Q 61.29 232.02 60.48 231.83
  A 2.94 2.92 -41.9 0 0 59.49 231.78
  Q 55.98 232.27 52.68 232.00
  C 51.15 231.88 49.70 232.03 48.23 232.10
  Q 46.58 232.18 44.93 232.04
  Q 42.02 231.79 39.01 232.39
  C 38.23 232.54 37.76 232.11 36.93 232.11
  Q 25.84 232.13 14.75 232.51
  Q 12.17 232.60 9.89 233.09
  Q 9.45 233.19 9.13 232.88
  Q 8.98 232.74 8.82 232.61
  A 1.53 1.51 -24.9 0 0 7.96 232.30
  L 0.00 232.00"
/>
<path stroke="#124650" vector-effect="non-scaling-stroke" d="
  M 200.00 255.69
  L 166.70 253.70
  A 0.03 0.02 58.3 0 1 166.68 253.69
  Q 161.36 253.10 156.83 253.28
  C 154.40 253.38 151.97 252.92 149.55 253.16
  Q 149.25 253.19 149.01 253.38
  Q 147.47 254.58 146.23 253.10
  Q 145.94 252.76 145.50 252.80
  Q 141.78 253.08 137.75 252.98
  Q 130.71 252.79 123.54 252.96
  A 119.55 6.79 -3.0 0 1 108.85 253.25
  Q 98.57 253.39 91.73 253.03
  Q 88.12 252.84 84.44 253.36
  C 83.33 253.52 82.64 252.95 81.55 252.95
  Q 60.59 253.04 38.87 253.38
  Q 37.89 253.40 36.90 253.59
  Q 35.72 253.82 34.58 253.57
  Q 33.27 253.28 31.96 253.19
  Q 30.79 253.10 29.46 253.34
  Q 25.67 254.02 21.58 254.49
  Q 20.21 254.64 19.02 254.44
  Q 17.59 254.20 16.35 254.99
  Q 16.25 255.05 16.20 254.95
  Q 16.13 254.84 16.03 254.74
  A 0.42 0.42 0.0 0 0 15.67 254.62
  Q 7.90 255.91 0.00 255.53"
/>
<path stroke="#19555e" vector-effect="non-scaling-stroke" d="
  M 200.00 287.73
  L 172.44 287.38
  Q 171.98 287.38 171.58 287.17
  Q 171.36 287.06 171.13 287.06
  Q 115.93 287.38 54.72 287.13
  Q 54.71 287.13 54.71 287.13
  L 0.00 287.71"
/>
</g>
<path fill="#02050e" d="
  M 0.00 0.00
  L 200.00 0.00
  L 200.00 79.75
  Q 199.69 79.65 199.63 80.04
  Q 199.57 80.48 199.13 80.41
  Q 198.91 80.37 198.74 80.22
  Q 198.39 79.91 197.93 79.92
  C 183.23 80.03 168.07 79.71 153.51 79.88
  Q 127.86 80.18 100.77 79.86
  Q 88.39 79.72 76.49 79.86
  C 75.96 79.87 75.72 80.12 75.16 80.12
  Q 59.10 80.19 41.56 80.09
  Q 40.26 80.08 38.98 80.15
  C 36.82 80.27 34.71 79.87 32.58 79.92
  Q 18.79 80.22 5.00 79.67
  Q 3.97 79.63 2.56 79.98
  Q 0.57 80.48 0.00 79.73
  L 0.00 0.00
  Z"
/>
<path fill="#030d19" d="
  M 0.00 79.73
  Q 0.57 80.48 2.56 79.98
  Q 3.97 79.63 5.00 79.67
  Q 18.79 80.22 32.58 79.92
  C 34.71 79.87 36.82 80.27 38.98 80.15
  Q 40.26 80.08 41.56 80.09
  Q 59.10 80.19 75.16 80.12
  C 75.72 80.12 75.96 79.87 76.49 79.86
  Q 88.39 79.72 100.77 79.86
  Q 127.86 80.18 153.51 79.88
  C 168.07 79.71 183.23 80.03 197.93 79.92
  Q 198.39 79.91 198.74 80.22
  Q 198.91 80.37 199.13 80.41
  Q 199.57 80.48 199.63 80.04
  Q 199.69 79.65 200.00 79.75
  L 200.00 128.18
  L 144.84 128.35
  Q 144.37 128.35 144.19 127.91
  Q 144.08 127.65 143.80 127.78
  Q 143.13 128.08 143.05 127.35
  Q 142.97 126.69 142.60 126.11
  Q 142.25 125.58 141.83 126.06
  Q 141.51 126.44 141.59 127.04
  Q 141.67 127.62 141.35 127.13
  Q 141.27 127.00 141.15 126.88
  Q 140.88 126.62 140.99 126.26
  Q 141.17 125.64 140.88 125.11
  Q 140.60 124.59 140.17 125.00
  Q 138.44 126.64 138.11 125.26
  Q 138.18 125.10 138.25 124.94
  L 141.17 119.08
  Q 143.26 112.25 143.41 107.03
  Q 143.59 100.69 143.90 94.36
  Q 143.93 93.86 143.42 93.86
  Q 135.59 94.00 127.89 94.65
  Q 119.32 95.36 111.98 100.09
  Q 111.81 100.47 110.98 101.00
  L 106.41 105.69
  C 100.58 114.84 100.87 123.17 101.11 134.20
  Q 100.96 134.24 100.91 134.40
  Q 100.79 134.75 100.51 134.54
  Q 100.46 134.51 100.41 134.49
  Q 100.15 134.43 100.13 134.16
  Q 100.12 133.98 100.12 133.80
  Q 100.12 133.50 99.90 133.31
  L 97.72 131.37
  Q 97.32 131.02 96.79 131.05
  Q 93.76 131.21 90.87 130.20
  A 1.12 1.09 42.1 0 0 90.07 130.23
  Q 89.52 130.47 89.07 130.08
  A 1.03 1.01 -24.2 0 0 88.36 129.82
  Q 87.24 129.84 86.16 130.00
  Q 85.52 130.10 84.83 129.94
  Q 81.93 129.26 78.08 129.08
  Q 77.04 129.03 76.08 129.32
  Q 75.13 129.60 74.11 129.59
  Q 71.00 129.56 67.87 129.61
  Q 67.38 129.62 66.92 129.43
  C 65.34 128.77 64.13 129.91 62.46 128.96
  Q 62.01 128.71 61.54 128.92
  Q 60.18 129.53 58.71 129.06
  Q 58.24 128.91 57.76 129.03
  Q 56.71 129.29 55.63 129.29
  Q 54.75 129.29 53.94 129.09
  Q 53.25 128.92 52.58 129.19
  Q 52.11 129.38 51.60 129.34
  Q 48.01 129.02 44.44 129.27
  Q 36.68 129.82 29.26 128.44
  Q 27.02 128.02 24.73 128.20
  Q 22.81 128.34 20.83 127.91
  Q 20.30 127.79 19.78 127.96
  Q 16.88 128.91 14.32 128.38
  C 12.47 128.00 10.80 128.60 8.92 128.33
  C 6.91 128.05 4.99 128.21 3.01 127.97
  A 2.74 2.74 0.0 0 1 0.63 125.70
  L 0.00 121.85
  L 0.00 79.73
  Z"
/>
<path fill="#f6b845" d="
  M 141.17 119.08
  Q 141.42 118.54 141.15 117.71
  A 0.08 0.07 -34.7 0 0 141.02 117.69
  Q 140.86 117.91 140.60 118.03
  A 0.29 0.29 0.0 0 1 140.24 117.93
  Q 139.40 116.77 139.80 115.60
  C 140.35 113.97 140.18 111.72 140.08 110.04
  Q 139.95 108.03 138.08 106.84
  Q 137.68 106.58 137.51 106.13
  Q 136.19 102.71 132.99 100.49
  Q 131.95 99.76 130.78 99.39
  Q 129.49 98.98 128.19 98.40
  Q 126.40 97.60 124.75 97.93
  C 122.81 98.32 120.92 99.57 118.96 99.76
  Q 117.81 99.88 116.65 100.00
  Q 116.11 100.06 114.40 100.56
  Q 112.79 101.04 111.98 100.09
  Q 119.32 95.36 127.89 94.65
  Q 135.59 94.00 143.42 93.86
  Q 143.93 93.86 143.90 94.36
  Q 143.59 100.69 143.41 107.03
  Q 143.26 112.25 141.17 119.08
  Z"
/>
<path fill="#f39563" d="
  M 141.17 119.08
  L 138.25 124.94
  Q 137.23 125.23 136.60 126.11
  Q 136.32 126.50 135.81 126.50
  Q 134.81 126.51 135.18 125.58
  Q 135.47 124.88 134.86 124.70
  Q 134.40 124.57 134.32 124.10
  Q 134.10 122.73 133.99 121.33
  Q 133.89 119.98 133.40 118.71
  Q 131.67 114.15 129.70 110.92
  Q 128.24 108.53 125.08 107.24
  Q 123.07 106.42 121.99 104.73
  Q 121.70 104.27 121.15 104.23
  L 113.17 103.63
  A 0.39 0.38 -75.9 0 0 112.79 103.86
  Q 112.73 103.99 112.61 104.07
  Q 112.27 104.29 112.32 103.89
  Q 112.38 103.44 111.90 103.19
  A 0.63 0.61 -48.7 0 0 111.26 103.24
  L 110.57 103.73
  Q 110.31 103.92 110.01 103.80
  L 109.25 103.49
  Q 108.99 103.38 109.21 103.21
  Q 110.72 102.06 110.98 101.00
  Q 111.81 100.47 111.98 100.09
  Q 112.79 101.04 114.40 100.56
  Q 116.11 100.06 116.65 100.00
  Q 117.81 99.88 118.96 99.76
  C 120.92 99.57 122.81 98.32 124.75 97.93
  Q 126.40 97.60 128.19 98.40
  Q 129.49 98.98 130.78 99.39
  Q 131.95 99.76 132.99 100.49
  Q 136.19 102.71 137.51 106.13
  Q 137.68 106.58 138.08 106.84
  Q 139.95 108.03 140.08 110.04
  C 140.18 111.72 140.35 113.97 139.80 115.60
  Q 139.40 116.77 140.24 117.93
  A 0.29 0.29 0.0 0 0 140.60 118.03
  Q 140.86 117.91 141.02 117.69
  A 0.08 0.07 -34.7 0 1 141.15 117.71
  Q 141.42 118.54 141.17 119.08
  Z"
/>
<path fill="#f07373" d="
  M 110.98 101.00
  Q 110.72 102.06 109.21 103.21
  Q 108.99 103.38 109.25 103.49
  L 110.01 103.80
  Q 110.31 103.92 110.57 103.73
  L 111.26 103.24
  A 0.63 0.61 -48.7 0 1 111.90 103.19
  Q 112.38 103.44 112.32 103.89
  Q 112.27 104.29 112.61 104.07
  Q 112.73 103.99 112.79 103.86
  A 0.39 0.38 -75.9 0 1 113.17 103.63
  L 121.15 104.23
  Q 121.70 104.27 121.99 104.73
  Q 123.07 106.42 125.08 107.24
  Q 128.24 108.53 129.70 110.92
  Q 131.67 114.15 133.40 118.71
  Q 133.89 119.98 133.99 121.33
  Q 134.10 122.73 134.32 124.10
  Q 134.40 124.57 134.86 124.70
  Q 135.47 124.88 135.18 125.58
  Q 134.81 126.51 135.81 126.50
  Q 136.32 126.50 136.60 126.11
  Q 137.23 125.23 138.25 124.94
  Q 138.18 125.10 138.11 125.26
  L 135.55 128.34
  Q 132.07 130.89 128.87 131.42
  A 0.27 0.27 0.0 0 1 128.57 131.08
  Q 128.63 130.88 128.51 130.75
  Q 128.27 130.49 127.94 130.36
  Q 126.43 129.81 126.67 128.16
  Q 126.72 127.80 126.41 127.60
  Q 124.85 126.58 125.06 124.71
  Q 125.12 124.23 124.95 123.78
  Q 123.81 120.65 122.35 117.93
  Q 121.66 116.65 120.21 116.17
  Q 119.90 116.07 119.91 115.76
  Q 119.91 115.32 119.51 115.16
  Q 117.97 114.57 116.57 113.62
  Q 115.20 112.69 113.73 112.41
  Q 110.96 111.88 108.33 111.26
  A 1.97 1.97 0.0 0 1 106.82 109.55
  L 106.41 105.69
  L 110.98 101.00
  Z"
/>
<path fill="#ee487b" d="
  M 106.41 105.69
  L 106.82 109.55
  A 1.97 1.97 0.0 0 0 108.33 111.26
  Q 110.96 111.88 113.73 112.41
  Q 115.20 112.69 116.57 113.62
  Q 117.97 114.57 119.51 115.16
  Q 119.91 115.32 119.91 115.76
  Q 119.90 116.07 120.21 116.17
  Q 121.66 116.65 122.35 117.93
  Q 123.81 120.65 124.95 123.78
  Q 125.12 124.23 125.06 124.71
  Q 124.85 126.58 126.41 127.60
  Q 126.72 127.80 126.67 128.16
  Q 126.43 129.81 127.94 130.36
  Q 128.27 130.49 128.51 130.75
  Q 128.63 130.88 128.57 131.08
  A 0.27 0.27 0.0 0 0 128.87 131.42
  Q 132.07 130.89 135.55 128.34
  Q 129.81 134.45 120.50 136.04
  Q 111.32 137.60 102.06 136.21
  Q 101.54 136.13 101.36 135.64
  Q 101.13 135.03 101.11 134.20
  C 100.87 123.17 100.58 114.84 106.41 105.69
  Z"
/>
<path fill="#051521" d="
  M 0.00 121.85
  L 0.63 125.70
  A 2.74 2.74 0.0 0 0 3.01 127.97
  C 4.99 128.21 6.91 128.05 8.92 128.33
  C 10.80 128.60 12.47 128.00 14.32 128.38
  Q 16.88 128.91 19.78 127.96
  Q 20.30 127.79 20.83 127.91
  Q 22.81 128.34 24.73 128.20
  Q 27.02 128.02 29.26 128.44
  Q 36.68 129.82 44.44 129.27
  Q 48.01 129.02 51.60 129.34
  Q 52.11 129.38 52.58 129.19
  Q 53.25 128.92 53.94 129.09
  Q 54.75 129.29 55.63 129.29
  Q 56.71 129.29 57.76 129.03
  Q 58.24 128.91 58.71 129.06
  Q 60.18 129.53 61.54 128.92
  Q 62.01 128.71 62.46 128.96
  C 64.13 129.91 65.34 128.77 66.92 129.43
  Q 67.38 129.62 67.87 129.61
  Q 71.00 129.56 74.11 129.59
  Q 75.13 129.60 76.08 129.32
  Q 77.04 129.03 78.08 129.08
  Q 81.93 129.26 84.83 129.94
  Q 85.52 130.10 86.16 130.00
  Q 87.24 129.84 88.36 129.82
  A 1.03 1.01 -24.2 0 1 89.07 130.08
  Q 89.52 130.47 90.07 130.23
  A 1.12 1.09 42.1 0 1 90.87 130.20
  Q 93.76 131.21 96.79 131.05
  Q 97.32 131.02 97.72 131.37
  L 99.90 133.31
  Q 100.12 133.50 100.12 133.80
  Q 100.12 133.98 100.13 134.16
  Q 100.15 134.43 100.41 134.49
  Q 100.46 134.51 100.51 134.54
  Q 100.79 134.75 100.91 134.40
  Q 100.96 134.24 101.11 134.20
  Q 101.13 135.03 101.36 135.64
  Q 101.54 136.13 102.06 136.21
  Q 111.32 137.60 120.50 136.04
  Q 129.81 134.45 135.55 128.34
  L 138.11 125.26
  Q 138.44 126.64 140.17 125.00
  Q 140.60 124.59 140.88 125.11
  Q 141.17 125.64 140.99 126.26
  Q 140.88 126.62 141.15 126.88
  Q 141.27 127.00 141.35 127.13
  Q 141.67 127.62 141.59 127.04
  Q 141.51 126.44 141.83 126.06
  Q 142.25 125.58 142.60 126.11
  Q 142.97 126.69 143.05 127.35
  Q 143.13 128.08 143.80 127.78
  Q 144.08 127.65 144.19 127.91
  Q 144.37 128.35 144.84 128.35
  L 200.00 128.18
  L 200.00 177.30
  Q 199.48 176.03 198.98 175.86
  L 198.97 151.70
  C 199.40 149.72 198.22 148.41 196.36 148.43
  Q 177.58 148.53 159.47 148.33
  Q 157.49 148.31 155.37 148.63
  Q 154.11 148.82 154.11 150.10
  L 154.18 170.19
  Q 153.74 171.02 153.90 172.11
  Q 153.90 172.13 153.90 172.13
  Q 153.85 172.17 153.81 172.13
  Q 153.78 172.08 153.81 172.04
  Q 153.88 171.94 153.90 171.80
  Q 153.97 171.30 153.56 171.01
  Q 151.99 169.88 150.14 169.49
  Q 149.66 169.39 149.52 168.93
  Q 148.58 166.04 145.82 167.20
  Q 145.55 167.32 145.56 167.02
  Q 145.58 166.70 145.25 166.65
  Q 144.62 166.56 144.44 166.79
  C 142.94 161.45 137.51 160.51 133.06 158.57
  Q 130.41 157.41 130.84 154.99
  C 131.59 150.89 138.04 152.36 140.67 153.81
  Q 142.06 154.58 142.88 153.22
  L 143.36 152.44
  Q 144.38 150.78 142.61 149.95
  C 137.22 147.39 129.65 147.02 126.43 152.76
  L 124.73 153.31
  Q 124.28 153.46 124.13 153.01
  L 123.29 150.54
  Q 123.39 149.74 123.05 149.10
  Q 122.79 148.62 122.25 148.57
  C 118.42 148.24 115.89 150.76 114.08 153.88
  Q 113.61 154.70 113.52 153.76
  Q 113.36 152.24 113.58 150.53
  Q 113.81 148.72 111.99 148.73
  L 110.28 148.75
  Q 108.68 148.76 108.68 150.36
  L 108.72 169.06
  Q 108.42 168.93 108.39 168.44
  Q 108.34 167.73 107.73 168.09
  Q 107.51 168.22 107.47 168.48
  A 0.05 0.05 0.0 0 1 107.40 168.52
  Q 106.79 168.25 106.51 167.74
  Q 106.24 167.25 105.74 166.96
  Q 105.44 166.79 105.20 167.09
  Q 104.87 167.52 104.33 167.42
  L 103.12 167.20
  Q 103.01 167.18 102.98 167.28
  Q 102.93 167.43 103.03 167.52
  Q 103.25 167.69 102.97 167.64
  Q 102.77 167.61 102.57 167.64
  Q 102.43 167.65 102.32 167.73
  Q 102.08 167.91 102.15 168.08
  Q 102.28 168.42 101.94 168.28
  Q 101.85 168.24 101.74 168.21
  C 105.30 159.88 101.69 150.87 92.60 148.74
  C 82.41 146.34 73.79 153.31 74.79 163.93
  Q 74.12 163.52 74.11 164.59
  Q 74.10 165.15 73.56 165.02
  Q 72.25 164.71 72.65 163.31
  Q 72.81 162.71 72.24 162.47
  Q 71.48 162.16 70.32 162.81
  A 1.31 1.30 -17.0 0 1 68.38 161.78
  L 68.05 157.78
  L 67.90 139.67
  A 1.08 1.08 0.0 0 0 67.03 138.62
  Q 63.68 137.97 62.90 139.48
  Q 62.84 149.18 62.88 158.76
  Q 62.89 160.24 61.73 161.67
  Q 61.43 162.03 61.16 161.65
  Q 60.93 161.32 60.53 161.36
  Q 60.15 161.40 59.95 161.71
  Q 59.72 162.05 59.33 161.98
  Q 57.57 161.67 57.28 159.76
  C 53.80 140.89 23.28 146.09 30.07 167.87
  Q 30.37 169.08 28.13 167.49
  Q 27.53 167.06 27.71 167.77
  Q 27.77 167.99 27.65 168.18
  Q 27.45 168.51 27.05 168.67
  Q 26.14 169.05 24.92 168.93
  L 24.24 168.63
  Q 23.68 168.38 23.18 168.74
  C 15.99 174.03 6.35 170.68 6.82 161.14
  C 7.08 155.81 11.50 152.17 16.77 152.53
  C 18.71 152.67 20.37 153.64 22.05 154.50
  Q 23.64 155.33 24.44 153.72
  L 24.77 153.05
  Q 25.57 151.44 24.02 150.54
  Q 17.65 146.81 10.99 148.88
  C 2.53 151.51 -0.42 160.82 3.07 168.51
  Q 2.74 169.30 2.09 169.80
  Q 1.71 170.10 1.50 170.53
  L 0.00 173.53
  L 0.00 121.85
  Z"
/>
<path fill="#fdfefe" d="
  M 68.05 157.78
  L 68.03 168.36
  A 2.21 2.21 0.0 0 0 69.51 170.46
  L 70.95 170.95
  Q 71.57 171.16 71.68 171.80
  Q 71.92 173.23 71.55 174.62
  Q 71.41 175.15 70.86 175.21
  C 63.72 175.98 63.00 171.62 62.97 165.69
  Q 62.90 152.63 62.90 139.48
  Q 63.68 137.97 67.03 138.62
  A 1.08 1.08 0.0 0 1 67.90 139.67
  L 68.05 157.78
  Z"
/>
<path fill="#09232f" d="
  M 62.90 139.48
  Q 62.90 152.63 62.97 165.69
  C 63.00 171.62 63.72 175.98 70.86 175.21
  Q 71.41 175.15 71.55 174.62
  Q 71.92 173.23 71.68 171.80
  Q 71.57 171.16 70.95 170.95
  L 69.51 170.46
  A 2.21 2.21 0.0 0 1 68.03 168.36
  L 68.05 157.78
  L 68.38 161.78
  A 1.31 1.30 -17.0 0 0 70.32 162.81
  Q 71.48 162.16 72.24 162.47
  Q 72.81 162.71 72.65 163.31
  Q 72.25 164.71 73.56 165.02
  Q 74.10 165.15 74.11 164.59
  Q 74.12 163.52 74.79 163.93
  C 77.49 177.89 94.66 179.75 101.74 168.21
  Q 101.85 168.24 101.94 168.28
  Q 102.28 168.42 102.15 168.08
  Q 102.08 167.91 102.32 167.73
  Q 102.43 167.65 102.57 167.64
  Q 102.77 167.61 102.97 167.64
  Q 103.25 167.69 103.03 167.52
  Q 102.93 167.43 102.98 167.28
  Q 103.01 167.18 103.12 167.20
  L 104.33 167.42
  Q 104.87 167.52 105.20 167.09
  Q 105.44 166.79 105.74 166.96
  Q 106.24 167.25 106.51 167.74
  Q 106.79 168.25 107.40 168.52
  A 0.05 0.05 0.0 0 0 107.47 168.48
  Q 107.51 168.22 107.73 168.09
  Q 108.34 167.73 108.39 168.44
  Q 108.42 168.93 108.72 169.06
  L 108.73 173.81
  Q 108.73 175.10 110.01 175.08
  L 112.46 175.06
  Q 113.76 175.04 113.75 173.74
  C 113.68 167.64 112.00 153.39 122.02 153.35
  A 1.04 1.04 0.0 0 0 122.87 152.91
  Q 123.57 151.93 123.29 150.54
  L 124.13 153.01
  Q 124.28 153.46 124.73 153.31
  L 126.43 152.76
  C 122.67 164.97 139.65 162.25 139.55 168.08
  C 139.47 172.27 133.80 171.95 131.19 170.76
  Q 129.53 170.00 128.05 169.27
  Q 126.94 168.73 126.22 169.74
  L 125.57 170.66
  Q 124.64 171.97 125.96 172.89
  C 132.38 177.37 144.60 177.32 144.44 166.79
  Q 144.62 166.56 145.25 166.65
  Q 145.58 166.70 145.56 167.02
  Q 145.55 167.32 145.82 167.20
  Q 148.58 166.04 149.52 168.93
  Q 149.66 169.39 150.14 169.49
  Q 151.99 169.88 153.56 171.01
  Q 153.97 171.30 153.90 171.80
  Q 153.88 171.94 153.81 172.04
  Q 153.78 172.08 153.81 172.13
  Q 153.85 172.17 153.90 172.13
  Q 153.90 172.13 153.90 172.11
  Q 153.74 171.02 154.18 170.19
  L 154.39 173.62
  A 2.26 2.25 88.5 0 0 156.63 175.75
  L 195.69 175.86
  Q 197.13 175.43 198.98 175.86
  Q 199.48 176.03 200.00 177.30
  L 200.00 193.13
  Q 199.62 192.77 199.60 192.12
  Q 199.59 191.63 199.15 191.85
  Q 198.79 192.05 198.36 192.04
  Q 194.48 191.97 190.87 192.18
  Q 185.57 192.50 178.93 191.60
  Q 178.48 191.54 178.30 191.12
  Q 177.82 189.97 176.55 190.38
  Q 175.58 190.70 174.68 190.58
  Q 174.29 190.52 174.12 190.89
  Q 174.04 191.05 173.89 191.16
  Q 173.54 191.41 173.12 191.47
  Q 168.73 192.13 164.94 191.50
  Q 160.02 190.69 156.16 191.31
  Q 152.79 191.85 148.98 192.66
  Q 146.62 193.16 145.20 191.38
  Q 145.12 191.27 145.15 191.15
  Q 145.16 191.09 145.21 191.07
  Q 145.62 190.81 145.14 190.90
  Q 144.93 190.93 144.65 191.04
  L 144.46 185.30
  Q 144.39 183.13 142.22 183.06
  L 136.15 182.84
  Q 134.37 182.78 134.34 184.56
  L 134.21 191.76
  Q 133.71 191.16 132.47 190.62
  L 132.39 186.01
  Q 132.38 185.50 131.98 185.18
  Q 131.07 184.46 130.10 185.23
  Q 129.05 186.08 128.81 187.75
  Q 128.77 188.02 128.56 188.17
  Q 128.37 188.31 128.19 188.26
  Q 127.62 188.11 127.59 187.52
  Q 127.52 186.34 126.95 185.82
  Q 124.20 183.32 124.05 187.27
  Q 124.01 188.24 124.06 190.53
  Q 124.02 190.92 123.59 191.00
  Q 123.09 191.09 122.89 190.62
  L 122.64 190.03
  C 124.81 184.77 118.07 182.86 116.84 187.34
  Q 116.27 189.43 118.33 190.86
  Q 118.55 192.32 115.67 191.10
  Q 116.15 190.76 115.94 190.13
  A 0.68 0.68 0.0 0 0 115.13 189.69
  Q 113.19 190.16 112.58 188.57
  C 112.10 187.31 113.46 185.87 114.81 186.50
  A 0.71 0.71 0.0 0 0 115.77 186.13
  L 115.93 185.73
  Q 116.18 185.11 115.52 185.03
  Q 113.96 184.85 112.34 185.24
  Q 111.75 185.37 111.42 185.88
  Q 109.77 188.37 112.06 190.89
  Q 111.31 192.89 107.65 192.44
  Q 107.18 192.39 106.81 192.69
  Q 106.15 193.23 105.20 192.85
  Q 105.11 192.81 105.14 192.70
  Q 105.18 192.57 105.16 192.45
  Q 105.14 192.39 105.08 192.41
  Q 104.27 192.71 103.37 192.60
  Q 103.20 192.57 103.34 192.68
  Q 103.46 192.78 103.59 192.75
  Q 103.81 192.69 104.03 192.75
  Q 104.32 192.83 104.03 192.89
  Q 102.05 193.35 100.03 192.93
  Q 99.51 192.82 99.01 192.98
  Q 97.58 193.43 96.67 192.32
  Q 96.38 191.96 96.10 192.32
  Q 95.47 193.13 94.43 192.87
  Q 93.80 192.72 93.53 192.16
  Q 93.39 191.85 93.09 191.67
  Q 93.02 191.62 92.94 191.66
  Q 92.53 191.92 92.14 191.49
  Q 91.23 190.46 90.02 191.20
  Q 89.65 191.43 89.24 191.31
  Q 88.98 191.23 88.81 191.01
  Q 88.52 190.63 88.16 190.94
  Q 86.00 192.81 82.82 191.92
  Q 82.46 191.82 82.24 192.11
  Q 82.13 192.24 81.96 192.28
  Q 81.53 192.39 81.06 192.24
  Q 80.10 191.95 78.98 191.91
  Q 76.02 191.82 73.04 191.61
  Q 71.54 191.50 70.03 191.62
  Q 68.50 191.74 66.95 191.54
  Q 64.69 191.25 62.14 191.43
  Q 51.75 192.16 42.24 191.01
  Q 40.64 190.82 38.92 191.29
  Q 37.30 191.73 35.52 191.63
  Q 31.53 191.41 27.44 191.52
  Q 26.73 191.54 26.23 191.05
  Q 25.67 190.50 25.00 190.92
  Q 24.48 191.25 23.88 191.13
  Q 22.90 190.95 22.08 191.25
  Q 21.22 191.56 20.32 191.62
  Q 11.42 192.22 2.50 192.29
  Q 0.69 192.30 0.00 193.88
  L 0.00 173.53
  L 1.50 170.53
  Q 1.71 170.10 2.09 169.80
  Q 2.74 169.30 3.07 168.51
  C 7.57 176.43 17.41 177.81 24.68 172.92
  Q 26.74 171.53 24.92 168.93
  Q 26.14 169.05 27.05 168.67
  Q 27.45 168.51 27.65 168.18
  Q 27.77 167.99 27.71 167.77
  Q 27.53 167.06 28.13 167.49
  Q 30.37 169.08 30.07 167.87
  Q 35.49 176.70 44.49 175.61
  C 53.06 174.57 58.05 168.49 57.28 159.76
  Q 57.57 161.67 59.33 161.98
  Q 59.72 162.05 59.95 161.71
  Q 60.15 161.40 60.53 161.36
  Q 60.93 161.32 61.16 161.65
  Q 61.43 162.03 61.73 161.67
  Q 62.89 160.24 62.88 158.76
  Q 62.84 149.18 62.90 139.48
  Z
  M 102.4160 185.6659
  A 0.74 0.74 0.0 0 0 101.6812 184.9207
  L 101.5012 184.9194
  A 0.74 0.74 0.0 0 0 100.7560 185.6543
  L 100.7240 190.2341
  A 0.74 0.74 0.0 0 0 101.4588 190.9793
  L 101.6388 190.9806
  A 0.74 0.74 0.0 0 0 102.3840 190.2457
  L 102.4160 185.6659
  Z
  M 96.17 188.26
  L 95.14 185.47
  Q 94.96 184.97 94.43 184.92
  L 94.07 184.88
  Q 93.06 184.76 93.44 185.71
  L 95.26 190.27
  A 1.29 1.29 0.0 0 0 97.64 190.30
  L 99.56 185.88
  Q 99.90 185.10 99.06 185.01
  Q 98.82 184.98 98.59 185.03
  Q 97.91 185.16 97.70 185.82
  L 96.91 188.25
  A 0.39 0.39 0.0 0 1 96.17 188.26
  Z
  M 107.11 186.25
  Q 108.11 186.52 107.15 186.91
  Q 106.18 187.30 105.17 187.38
  C 103.76 187.50 103.51 188.95 103.76 190.09
  Q 103.88 190.67 104.45 190.82
  Q 105.98 191.23 107.65 191.08
  C 110.20 190.85 110.21 187.61 109.31 185.92
  C 108.54 184.48 105.86 184.98 104.50 185.02
  Q 103.70 185.05 104.12 185.73
  L 104.33 186.08
  A 0.51 0.50 66.2 0 0 104.89 186.30
  Q 106.08 185.97 107.11 186.25
  Z"
/>
<path fill="#fdfefe" d="
  M 24.92 168.93
  Q 26.74 171.53 24.68 172.92
  C 17.41 177.81 7.57 176.43 3.07 168.51
  C -0.42 160.82 2.53 151.51 10.99 148.88
  Q 17.65 146.81 24.02 150.54
  Q 25.57 151.44 24.77 153.05
  L 24.44 153.72
  Q 23.64 155.33 22.05 154.50
  C 20.37 153.64 18.71 152.67 16.77 152.53
  C 11.50 152.17 7.08 155.81 6.82 161.14
  C 6.35 170.68 15.99 174.03 23.18 168.74
  Q 23.68 168.38 24.24 168.63
  L 24.92 168.93
  Z"
/>
<path fill="#fdfefe" d="
  M 57.28 159.76
  C 58.05 168.49 53.06 174.57 44.49 175.61
  Q 35.49 176.70 30.07 167.87
  C 23.28 146.09 53.80 140.89 57.28 159.76
  Z
  M 43.2260 171.3498
  A 9.46 9.10 89.6 0 0 52.2598 161.8265
  A 9.46 9.10 89.6 0 0 43.0940 152.4302
  A 9.46 9.10 89.6 0 0 34.0602 161.9535
  A 9.46 9.10 89.6 0 0 43.2260 171.3498
  Z"
/>
<path fill="#fdfefe" d="
  M 101.74 168.21
  C 94.66 179.75 77.49 177.89 74.79 163.93
  C 73.79 153.31 82.41 146.34 92.60 148.74
  C 101.69 150.87 105.30 159.88 101.74 168.21
  Z
  M 89.0153 171.3393
  A 9.44 9.10 89.3 0 0 97.9993 161.7888
  A 9.44 9.10 89.3 0 0 88.7847 152.4607
  A 9.44 9.10 89.3 0 0 79.8007 162.0112
  A 9.44 9.10 89.3 0 0 89.0153 171.3393
  Z"
/>
<path fill="#fdfefe" d="
  M 144.44 166.79
  C 144.60 177.32 132.38 177.37 125.96 172.89
  Q 124.64 171.97 125.57 170.66
  L 126.22 169.74
  Q 126.94 168.73 128.05 169.27
  Q 129.53 170.00 131.19 170.76
  C 133.80 171.95 139.47 172.27 139.55 168.08
  C 139.65 162.25 122.67 164.97 126.43 152.76
  C 129.65 147.02 137.22 147.39 142.61 149.95
  Q 144.38 150.78 143.36 152.44
  L 142.88 153.22
  Q 142.06 154.58 140.67 153.81
  C 138.04 152.36 131.59 150.89 130.84 154.99
  Q 130.41 157.41 133.06 158.57
  C 137.51 160.51 142.94 161.45 144.44 166.79
  Z"
/>
<path fill="#6f2c62" d="
  M 198.97 151.70
  L 198.71 150.54
  Q 198.49 149.52 197.44 149.48
  Q 192.29 149.30 188.31 148.79
  C 186.74 148.60 185.31 148.98 183.74 148.84
  Q 183.24 148.79 182.92 149.18
  Q 182.64 149.52 182.16 149.44
  Q 181.51 149.34 181.88 149.88
  Q 182.20 150.37 182.76 150.35
  Q 183.27 150.33 183.72 150.55
  Q 185.58 151.48 186.00 152.77
  L 179.39 152.77
  A 0.98 0.98 0.0 0 0 178.41 153.74
  L 178.30 171.90
  A 0.57 0.57 0.0 0 0 178.86 172.47
  L 182.45 172.50
  Q 182.22 173.33 183.03 173.61
  Q 183.47 173.77 183.69 174.18
  Q 184.05 174.85 185.01 174.86
  Q 190.01 174.88 195.04 174.87
  Q 195.49 174.87 195.59 175.14
  Q 195.69 175.39 195.69 175.86
  L 156.63 175.75
  A 2.26 2.25 88.5 0 1 154.39 173.62
  L 154.18 170.19
  L 154.11 150.10
  Q 154.11 148.82 155.37 148.63
  Q 157.49 148.31 159.47 148.33
  Q 177.58 148.53 196.36 148.43
  C 198.22 148.41 199.40 149.72 198.97 151.70
  Z
  M 171.44 160.64
  A 0.76 0.76 0.0 0 1 170.68 161.40
  L 163.05 161.39
  A 0.76 0.76 0.0 0 1 162.29 160.61
  L 162.46 153.64
  A 0.76 0.76 0.0 0 0 161.73 152.87
  L 159.54 152.80
  A 0.76 0.76 0.0 0 0 158.75 153.56
  L 158.83 171.71
  A 0.76 0.76 0.0 0 0 159.59 172.47
  L 161.65 172.47
  A 0.76 0.76 0.0 0 0 162.41 171.71
  L 162.37 164.94
  A 0.76 0.76 0.0 0 1 163.14 164.18
  L 170.58 164.27
  A 0.76 0.76 0.0 0 1 171.33 165.03
  L 171.29 171.75
  A 0.76 0.76 0.0 0 0 172.07 172.51
  L 174.11 172.47
  A 0.76 0.76 0.0 0 0 174.86 171.70
  L 174.74 153.52
  A 0.76 0.76 0.0 0 0 174.03 152.77
  L 172.27 152.66
  A 0.76 0.76 0.0 0 0 171.47 153.42
  L 171.44 160.64
  Z"
/>
<path fill="#fdfefe" d="
  M 123.29 150.54
  Q 123.57 151.93 122.87 152.91
  A 1.04 1.04 0.0 0 1 122.02 153.35
  C 112.00 153.39 113.68 167.64 113.75 173.74
  Q 113.76 175.04 112.46 175.06
  L 110.01 175.08
  Q 108.73 175.10 108.73 173.81
  L 108.72 169.06
  L 108.68 150.36
  Q 108.68 148.76 110.28 148.75
  L 111.99 148.73
  Q 113.81 148.72 113.58 150.53
  Q 113.36 152.24 113.52 153.76
  Q 113.61 154.70 114.08 153.88
  C 115.89 150.76 118.42 148.24 122.25 148.57
  Q 122.79 148.62 123.05 149.10
  Q 123.39 149.74 123.29 150.54
  Z"
/>
<path fill="#a23390" d="
  M 198.97 151.70
  L 198.98 175.86
  Q 197.13 175.43 195.69 175.86
  Q 195.69 175.39 195.59 175.14
  Q 195.49 174.87 195.04 174.87
  Q 190.01 174.88 185.01 174.86
  Q 184.05 174.85 183.69 174.18
  Q 183.47 173.77 183.03 173.61
  Q 182.22 173.33 182.45 172.50
  C 189.65 172.93 195.12 170.15 194.90 162.15
  Q 194.67 153.97 186.00 152.77
  Q 185.58 151.48 183.72 150.55
  Q 183.27 150.33 182.76 150.35
  Q 182.20 150.37 181.88 149.88
  Q 181.51 149.34 182.16 149.44
  Q 182.64 149.52 182.92 149.18
  Q 183.24 148.79 183.74 148.84
  C 185.31 148.98 186.74 148.60 188.31 148.79
  Q 192.29 149.30 197.44 149.48
  Q 198.49 149.52 198.71 150.54
  L 198.97 151.70
  Z"
/>
<ellipse fill="#051521" cx="0.00" cy="0.00" transform="translate(43.16,161.89) rotate(89.6)" rx="9.46" ry="9.10"/>
<ellipse fill="#051521" cx="0.00" cy="0.00" transform="translate(88.90,161.90) rotate(89.3)" rx="9.44" ry="9.10"/>
<path fill="#fdfefe" d="
  M 171.44 160.64
  L 171.47 153.42
  A 0.76 0.76 0.0 0 1 172.27 152.66
  L 174.03 152.77
  A 0.76 0.76 0.0 0 1 174.74 153.52
  L 174.86 171.70
  A 0.76 0.76 0.0 0 1 174.11 172.47
  L 172.07 172.51
  A 0.76 0.76 0.0 0 1 171.29 171.75
  L 171.33 165.03
  A 0.76 0.76 0.0 0 0 170.58 164.27
  L 163.14 164.18
  A 0.76 0.76 0.0 0 0 162.37 164.94
  L 162.41 171.71
  A 0.76 0.76 0.0 0 1 161.65 172.47
  L 159.59 172.47
  A 0.76 0.76 0.0 0 1 158.83 171.71
  L 158.75 153.56
  A 0.76 0.76 0.0 0 1 159.54 152.80
  L 161.73 152.87
  A 0.76 0.76 0.0 0 1 162.46 153.64
  L 162.29 160.61
  A 0.76 0.76 0.0 0 0 163.05 161.39
  L 170.68 161.40
  A 0.76 0.76 0.0 0 0 171.44 160.64
  Z"
/>
<path fill="#fdfefe" d="
  M 186.00 152.77
  Q 194.67 153.97 194.90 162.15
  C 195.12 170.15 189.65 172.93 182.45 172.50
  L 178.86 172.47
  A 0.57 0.57 0.0 0 1 178.30 171.90
  L 178.41 153.74
  A 0.98 0.98 0.0 0 1 179.39 152.77
  L 186.00 152.77
  Z
  M 181.75 156.42
  L 181.75 168.84
  A 0.67 0.67 0.0 0 0 182.42 169.51
  L 184.95 169.51
  A 6.42 6.17 -0.0 0 0 191.37 163.34
  L 191.37 161.92
  A 6.42 6.17 0.0 0 0 184.95 155.75
  L 182.42 155.75
  A 0.67 0.67 0.0 0 0 181.75 156.42
  Z"
/>
<path fill="#a23390" d="
  M 181.75 156.42
  A 0.67 0.67 0.0 0 1 182.42 155.75
  L 184.95 155.75
  A 6.42 6.17 0.0 0 1 191.37 161.92
  L 191.37 163.34
  A 6.42 6.17 0.0 0 1 184.95 169.51
  L 182.42 169.51
  A 0.67 0.67 0.0 0 1 181.75 168.84
  L 181.75 156.42
  Z"
/>
<path fill="#f07373" d="
  M 144.65 191.04
  Q 144.76 191.73 144.47 192.31
  A 0.86 0.86 0.0 0 1 143.74 192.78
  Q 139.56 192.96 135.05 192.91
  Q 134.66 192.90 134.43 192.60
  Q 134.22 192.30 134.21 191.76
  L 134.34 184.56
  Q 134.37 182.78 136.15 182.84
  L 142.22 183.06
  Q 144.39 183.13 144.46 185.30
  L 144.65 191.04
  Z
  M 137.68 185.01
  L 136.33 185.11
  A 0.27 0.27 0.0 0 0 136.08 185.40
  L 136.09 185.51
  A 5.46 0.47 85.8 0 0 136.96 190.92
  L 137.91 190.85
  A 5.46 0.47 85.8 0 0 137.98 185.37
  L 137.97 185.26
  A 0.27 0.27 0.0 0 0 137.68 185.01
  Z
  M 142.3917 186.2675
  A 1.28 1.28 0.0 0 0 141.0465 185.0563
  L 139.9879 185.1117
  A 1.28 1.28 0.0 0 0 138.7766 186.4570
  L 138.9483 189.7325
  A 1.28 1.28 0.0 0 0 140.2935 190.9437
  L 141.3521 190.8883
  A 1.28 1.28 0.0 0 0 142.5634 189.5430
  L 142.3917 186.2675
  Z"
/>
<rect fill="#fdfefe" x="-0.83" y="-3.03" transform="translate(101.57,187.95) rotate(0.4)" width="1.66" height="6.06" rx="0.74"/>
<path fill="#fdfefe" d="
  M 96.91 188.25
  L 97.70 185.82
  Q 97.91 185.16 98.59 185.03
  Q 98.82 184.98 99.06 185.01
  Q 99.90 185.10 99.56 185.88
  L 97.64 190.30
  A 1.29 1.29 0.0 0 1 95.26 190.27
  L 93.44 185.71
  Q 93.06 184.76 94.07 184.88
  L 94.43 184.92
  Q 94.96 184.97 95.14 185.47
  L 96.17 188.26
  A 0.39 0.39 0.0 0 0 96.91 188.25
  Z"
/>
<path fill="#fdfefe" d="
  M 107.11 186.25
  Q 106.08 185.97 104.89 186.30
  A 0.51 0.50 66.2 0 1 104.33 186.08
  L 104.12 185.73
  Q 103.70 185.05 104.50 185.02
  C 105.86 184.98 108.54 184.48 109.31 185.92
  C 110.21 187.61 110.20 190.85 107.65 191.08
  Q 105.98 191.23 104.45 190.82
  Q 103.88 190.67 103.76 190.09
  C 103.51 188.95 103.76 187.50 105.17 187.38
  Q 106.18 187.30 107.15 186.91
  Q 108.11 186.52 107.11 186.25
  Z
  M 107.6996 189.2738
  A 0.94 0.67 -1.6 0 0 106.7413 188.6303
  A 0.94 0.67 -1.6 0 0 105.8204 189.3262
  A 0.94 0.67 -1.6 0 0 106.7787 189.9697
  A 0.94 0.67 -1.6 0 0 107.6996 189.2738
  Z"
/>
<path fill="#fdfefe" d="
  M 115.67 191.10
  L 112.06 190.89
  Q 109.77 188.37 111.42 185.88
  Q 111.75 185.37 112.34 185.24
  Q 113.96 184.85 115.52 185.03
  Q 116.18 185.11 115.93 185.73
  L 115.77 186.13
  A 0.71 0.71 0.0 0 1 114.81 186.50
  C 113.46 185.87 112.10 187.31 112.58 188.57
  Q 113.19 190.16 115.13 189.69
  A 0.68 0.68 0.0 0 1 115.94 190.13
  Q 116.15 190.76 115.67 191.10
  Z"
/>
<path fill="#fdfefe" d="
  M 122.64 190.03
  Q 120.91 191.43 118.33 190.86
  Q 116.27 189.43 116.84 187.34
  C 118.07 182.86 124.81 184.77 122.64 190.03
  Z
  M 119.8335 189.7579
  A 1.77 1.45 92.8 0 0 121.3683 188.0608
  A 1.77 1.45 92.8 0 0 120.0065 186.2221
  A 1.77 1.45 92.8 0 0 118.4717 187.9192
  A 1.77 1.45 92.8 0 0 119.8335 189.7579
  Z"
/>
<path fill="#fdfefe" d="
  M 132.47 190.62
  Q 131.82 191.21 131.24 190.97
  Q 130.66 190.73 130.79 190.11
  Q 130.95 189.39 130.69 188.72
  Q 130.29 187.68 129.90 188.73
  L 129.33 190.25
  Q 129.12 190.81 128.52 190.89
  Q 126.74 191.13 126.49 188.66
  Q 126.39 187.65 125.87 188.52
  Q 125.49 189.17 125.67 190.00
  A 0.89 0.87 -87.9 0 1 124.57 191.05
  Q 124.43 191.01 124.06 190.53
  Q 124.01 188.24 124.05 187.27
  Q 124.20 183.32 126.95 185.82
  Q 127.52 186.34 127.59 187.52
  Q 127.62 188.11 128.19 188.26
  Q 128.37 188.31 128.56 188.17
  Q 128.77 188.02 128.81 187.75
  Q 129.05 186.08 130.10 185.23
  Q 131.07 184.46 131.98 185.18
  Q 132.38 185.50 132.39 186.01
  L 132.47 190.62
  Z"
/>
<path fill="#fdfefe" d="
  M 137.68 185.01
  A 0.27 0.27 0.0 0 1 137.97 185.26
  L 137.98 185.37
  A 5.46 0.47 85.8 0 1 137.91 190.85
  L 136.96 190.92
  A 5.46 0.47 85.8 0 1 136.09 185.51
  L 136.08 185.40
  A 0.27 0.27 0.0 0 1 136.33 185.11
  L 137.68 185.01
  Z"
/>
<rect fill="#fdfefe" x="-1.81" y="-2.92" transform="translate(140.67,188.00) rotate(-3.0)" width="3.62" height="5.84" rx="1.28"/>
<ellipse fill="#051521" cx="0.00" cy="0.00" transform="translate(119.92,187.99) rotate(92.8)" rx="1.77" ry="1.45"/>
<path fill="#0b2e38" d="
  M 132.47 190.62
  Q 133.71 191.16 134.21 191.76
  Q 134.22 192.30 134.43 192.60
  Q 134.66 192.90 135.05 192.91
  Q 139.56 192.96 143.74 192.78
  A 0.86 0.86 0.0 0 0 144.47 192.31
  Q 144.76 191.73 144.65 191.04
  Q 144.93 190.93 145.14 190.90
  Q 145.62 190.81 145.21 191.07
  Q 145.16 191.09 145.15 191.15
  Q 145.12 191.27 145.20 191.38
  Q 146.62 193.16 148.98 192.66
  Q 152.79 191.85 156.16 191.31
  Q 160.02 190.69 164.94 191.50
  Q 168.73 192.13 173.12 191.47
  Q 173.54 191.41 173.89 191.16
  Q 174.04 191.05 174.12 190.89
  Q 174.29 190.52 174.68 190.58
  Q 175.58 190.70 176.55 190.38
  Q 177.82 189.97 178.30 191.12
  Q 178.48 191.54 178.93 191.60
  Q 185.57 192.50 190.87 192.18
  Q 194.48 191.97 198.36 192.04
  Q 198.79 192.05 199.15 191.85
  Q 199.59 191.63 199.60 192.12
  Q 199.62 192.77 200.00 193.13
  L 200.00 216.36
  Q 189.50 216.16 178.98 215.67
  Q 167.26 215.12 159.01 215.06
  Q 149.58 214.99 140.16 214.93
  Q 130.24 214.86 121.35 215.34
  Q 109.10 215.99 99.78 215.70
  Q 92.86 215.49 85.59 215.39
  Q 78.72 215.30 71.40 215.06
  Q 53.55 214.47 35.31 214.80
  Q 30.52 214.88 25.74 215.27
  Q 21.25 215.63 16.15 215.39
  A 2.29 2.26 -55.3 0 0 15.15 215.58
  Q 14.23 215.97 13.31 215.75
  Q 12.85 215.64 12.39 215.72
  Q 6.09 216.85 0.00 215.91
  L 0.00 193.88
  Q 0.69 192.30 2.50 192.29
  Q 11.42 192.22 20.32 191.62
  Q 21.22 191.56 22.08 191.25
  Q 22.90 190.95 23.88 191.13
  Q 24.48 191.25 25.00 190.92
  Q 25.67 190.50 26.23 191.05
  Q 26.73 191.54 27.44 191.52
  Q 31.53 191.41 35.52 191.63
  Q 37.30 191.73 38.92 191.29
  Q 40.64 190.82 42.24 191.01
  Q 51.75 192.16 62.14 191.43
  Q 64.69 191.25 66.95 191.54
  Q 68.50 191.74 70.03 191.62
  Q 71.54 191.50 73.04 191.61
  Q 76.02 191.82 78.98 191.91
  Q 80.10 191.95 81.06 192.24
  Q 81.53 192.39 81.96 192.28
  Q 82.13 192.24 82.24 192.11
  Q 82.46 191.82 82.82 191.92
  Q 86.00 192.81 88.16 190.94
  Q 88.52 190.63 88.81 191.01
  Q 88.98 191.23 89.24 191.31
  Q 89.65 191.43 90.02 191.20
  Q 91.23 190.46 92.14 191.49
  Q 92.53 191.92 92.94 191.66
  Q 93.02 191.62 93.09 191.67
  Q 93.39 191.85 93.53 192.16
  Q 93.80 192.72 94.43 192.87
  Q 95.47 193.13 96.10 192.32
  Q 96.38 191.96 96.67 192.32
  Q 97.58 193.43 99.01 192.98
  Q 99.51 192.82 100.03 192.93
  Q 102.05 193.35 104.03 192.89
  Q 104.32 192.83 104.03 192.75
  Q 103.81 192.69 103.59 192.75
  Q 103.46 192.78 103.34 192.68
  Q 103.20 192.57 103.37 192.60
  Q 104.27 192.71 105.08 192.41
  Q 105.14 192.39 105.16 192.45
  Q 105.18 192.57 105.14 192.70
  Q 105.11 192.81 105.20 192.85
  Q 106.15 193.23 106.81 192.69
  Q 107.18 192.39 107.65 192.44
  Q 111.31 192.89 112.06 190.89
  L 115.67 191.10
  Q 118.55 192.32 118.33 190.86
  Q 120.91 191.43 122.64 190.03
  L 122.89 190.62
  Q 123.09 191.09 123.59 191.00
  Q 124.02 190.92 124.06 190.53
  Q 124.43 191.01 124.57 191.05
  A 0.89 0.87 -87.9 0 0 125.67 190.00
  Q 125.49 189.17 125.87 188.52
  Q 126.39 187.65 126.49 188.66
  Q 126.74 191.13 128.52 190.89
  Q 129.12 190.81 129.33 190.25
  L 129.90 188.73
  Q 130.29 187.68 130.69 188.72
  Q 130.95 189.39 130.79 190.11
  Q 130.66 190.73 131.24 190.97
  Q 131.82 191.21 132.47 190.62
  Z"
/>
<ellipse fill="#0b2e38" cx="0.00" cy="0.00" transform="translate(106.76,189.30) rotate(-1.6)" rx="0.94" ry="0.67"/>
<path fill="#0e3741" d="
  M 200.00 216.36
  L 200.00 233.37
  Q 199.51 233.21 199.33 232.72
  Q 199.12 232.16 198.52 232.15
  L 149.27 232.07
  Q 148.70 232.07 148.13 232.09
  Q 144.11 232.26 140.51 232.03
  Q 137.79 231.85 134.63 232.27
  Q 131.83 232.63 128.73 232.53
  Q 121.43 232.28 114.46 232.35
  Q 111.35 232.38 106.14 232.25
  Q 101.96 232.15 97.81 232.27
  Q 95.85 232.33 93.46 232.17
  Q 91.27 232.03 89.10 232.06
  Q 85.78 232.11 82.54 232.04
  Q 72.30 231.82 62.23 232.00
  Q 61.29 232.02 60.48 231.83
  A 2.94 2.92 -41.9 0 0 59.49 231.78
  Q 55.98 232.27 52.68 232.00
  C 51.15 231.88 49.70 232.03 48.23 232.10
  Q 46.58 232.18 44.93 232.04
  Q 42.02 231.79 39.01 232.39
  C 38.23 232.54 37.76 232.11 36.93 232.11
  Q 25.84 232.13 14.75 232.51
  Q 12.17 232.60 9.89 233.09
  Q 9.45 233.19 9.13 232.88
  Q 8.98 232.74 8.82 232.61
  A 1.53 1.51 -24.9 0 0 7.96 232.30
  L 0.00 232.00
  L 0.00 215.91
  Q 6.09 216.85 12.39 215.72
  Q 12.85 215.64 13.31 215.75
  Q 14.23 215.97 15.15 215.58
  A 2.29 2.26 -55.3 0 1 16.15 215.39
  Q 21.25 215.63 25.74 215.27
  Q 30.52 214.88 35.31 214.80
  Q 53.55 214.47 71.40 215.06
  Q 78.72 215.30 85.59 215.39
  Q 92.86 215.49 99.78 215.70
  Q 109.10 215.99 121.35 215.34
  Q 130.24 214.86 140.16 214.93
  Q 149.58 214.99 159.01 215.06
  Q 167.26 215.12 178.98 215.67
  Q 189.50 216.16 200.00 216.36
  Z"
/>
<path fill="#10404a" d="
  M 200.00 233.37
  L 200.00 255.69
  L 166.70 253.70
  A 0.03 0.02 58.3 0 1 166.68 253.69
  Q 161.36 253.10 156.83 253.28
  C 154.40 253.38 151.97 252.92 149.55 253.16
  Q 149.25 253.19 149.01 253.38
  Q 147.47 254.58 146.23 253.10
  Q 145.94 252.76 145.50 252.80
  Q 141.78 253.08 137.75 252.98
  Q 130.71 252.79 123.54 252.96
  A 119.55 6.79 -3.0 0 1 108.85 253.25
  Q 98.57 253.39 91.73 253.03
  Q 88.12 252.84 84.44 253.36
  C 83.33 253.52 82.64 252.95 81.55 252.95
  Q 60.59 253.04 38.87 253.38
  Q 37.89 253.40 36.90 253.59
  Q 35.72 253.82 34.58 253.57
  Q 33.27 253.28 31.96 253.19
  Q 30.79 253.10 29.46 253.34
  Q 25.67 254.02 21.58 254.49
  Q 20.21 254.64 19.02 254.44
  Q 17.59 254.20 16.35 254.99
  Q 16.25 255.05 16.20 254.95
  Q 16.13 254.84 16.03 254.74
  A 0.42 0.42 0.0 0 0 15.67 254.62
  Q 7.90 255.91 0.00 255.53
  L 0.00 232.00
  L 7.96 232.30
  A 1.53 1.51 -24.9 0 1 8.82 232.61
  Q 8.98 232.74 9.13 232.88
  Q 9.45 233.19 9.89 233.09
  Q 12.17 232.60 14.75 232.51
  Q 25.84 232.13 36.93 232.11
  C 37.76 232.11 38.23 232.54 39.01 232.39
  Q 42.02 231.79 44.93 232.04
  Q 46.58 232.18 48.23 232.10
  C 49.70 232.03 51.15 231.88 52.68 232.00
  Q 55.98 232.27 59.49 231.78
  A 2.94 2.92 -41.9 0 1 60.48 231.83
  Q 61.29 232.02 62.23 232.00
  Q 72.30 231.82 82.54 232.04
  Q 85.78 232.11 89.10 232.06
  Q 91.27 232.03 93.46 232.17
  Q 95.85 232.33 97.81 232.27
  Q 101.96 232.15 106.14 232.25
  Q 111.35 232.38 114.46 232.35
  Q 121.43 232.28 128.73 232.53
  Q 131.83 232.63 134.63 232.27
  Q 137.79 231.85 140.51 232.03
  Q 144.11 232.26 148.13 232.09
  Q 148.70 232.07 149.27 232.07
  L 198.52 232.15
  Q 199.12 232.16 199.33 232.72
  Q 199.51 233.21 200.00 233.37
  Z"
/>
<path fill="#134c56" d="
  M 200.00 255.69
  L 200.00 287.73
  L 172.44 287.38
  Q 171.98 287.38 171.58 287.17
  Q 171.36 287.06 171.13 287.06
  Q 115.93 287.38 54.72 287.13
  Q 54.71 287.13 54.71 287.13
  L 0.00 287.71
  L 0.00 255.53
  Q 7.90 255.91 15.67 254.62
  A 0.42 0.42 0.0 0 1 16.03 254.74
  Q 16.13 254.84 16.20 254.95
  Q 16.25 255.05 16.35 254.99
  Q 17.59 254.20 19.02 254.44
  Q 20.21 254.64 21.58 254.49
  Q 25.67 254.02 29.46 253.34
  Q 30.79 253.10 31.96 253.19
  Q 33.27 253.28 34.58 253.57
  Q 35.72 253.82 36.90 253.59
  Q 37.89 253.40 38.87 253.38
  Q 60.59 253.04 81.55 252.95
  C 82.64 252.95 83.33 253.52 84.44 253.36
  Q 88.12 252.84 91.73 253.03
  Q 98.57 253.39 108.85 253.25
  A 119.55 6.79 -3.0 0 0 123.54 252.96
  Q 130.71 252.79 137.75 252.98
  Q 141.78 253.08 145.50 252.80
  Q 145.94 252.76 146.23 253.10
  Q 147.47 254.58 149.01 253.38
  Q 149.25 253.19 149.55 253.16
  C 151.97 252.92 154.40 253.38 156.83 253.28
  Q 161.36 253.10 166.68 253.69
  A 0.03 0.02 58.3 0 0 166.70 253.70
  L 200.00 255.69
  Z"
/>
<path fill="#1e5d66" d="
  M 200.00 287.73
  L 200.00 300.00
  L 0.00 300.00
  L 0.00 287.71
  L 54.71 287.13
  Q 54.71 287.13 54.72 287.13
  Q 115.93 287.38 171.13 287.06
  Q 171.36 287.06 171.58 287.17
  Q 171.98 287.38 172.44 287.38
  L 200.00 287.73
  Z"
/>
</svg>
